<svg width="786.82" height="572.258" viewBox="0 0 786.82 572.258" xmlns="http://www.w3.org/2000/svg" xmlns:xlink="http://www.w3.org/1999/xlink" overflow="hidden"><circle cx="458.321" cy="74.1816" r="26.7007" fill="#F2F2F2"/><path d="M872.038 661.023C911.725 630.794 930.681 579.998 918.814 531.541 918.519 530.337 918.208 529.135 917.88 527.937 910.013 499.173 890.549 471.836 862.18 462.646 838.36 454.929 812.361 460.863 787.511 457.794 738.729 451.77 700.91 412.3 674.3 370.975 647.689 329.649 627.238 283.392 591.878 249.251 533.593 192.975 438.516 180.859 366.251 217.49 293.987 254.121 247.955 335.391 249.918 416.386 251.881 497.381 299.964 574.817 369.793 615.903 395.445 630.996 425.114 641.688 454.641 637.946 480.261 634.7 503.54 620.934 529.04 616.847 569.131 610.421 608.967 628.548 643.642 649.67 678.318 670.793 711.813 695.83 751.217 705.623 789.478 715.131 836.88 687.801 872.038 661.023Z" fill="#F2F2F2" transform="translate(-206.59 -163.871)"/><path d="M815.016 219.191C814.146 218.611 813.266 218.061 812.396 217.501 787.247 201.417 760.291 188.35 732.086 178.571L725.546 268.791 684.086 268.791 684.086 165.401C681.476 164.861 678.846 164.351 676.216 163.871L676.216 268.791 626.946 268.791C570.464 268.791 524.676 223.003 524.676 166.521L524.676 166.521C522.036 167.091 519.416 167.701 516.796 168.351L516.796 268.791 476.666 268.791 470.436 182.761C441.451 193.877 413.933 208.496 388.496 226.291 388.056 226.591 387.616 226.901 387.186 227.201 384.976 228.751 382.796 230.331 380.626 231.931L380.626 576.121 498.896 576.121 496.806 547.171 485.306 388.221 716.896 388.221 705.396 547.171 703.306 576.121 820.266 576.121 820.266 222.671C818.526 221.491 816.776 220.331 815.016 219.191ZM516.796 361.971 483.406 361.971 477.236 276.671 516.796 276.671ZM676.216 361.971 620.136 361.971 620.136 360.281C620.136 356.868 617.37 354.101 613.956 354.101 613.953 354.101 613.949 354.101 613.946 354.101L589.566 354.101C586.154 354.1 583.387 356.864 583.386 360.276 583.386 360.278 583.386 360.279 583.386 360.281L583.386 361.971 524.676 361.971 524.676 276.671 676.216 276.671ZM684.086 361.971 684.086 276.671 724.976 276.671 718.806 361.971Z" fill="#3F3D56" transform="translate(-206.59 -163.871)"/><path d="M206.59 598.162C215.277 608.455 224.673 618.129 234.71 627.112L965.29 628.112C975.326 619.129 984.723 609.455 993.41 599.162Z" fill="#3F3D56" transform="translate(-206.59 -163.871)"/><path d="M702.02 505.462 702.02 591.166C702.022 593.441 703.865 595.284 706.139 595.286L833.143 595.286C835.418 595.284 837.261 593.441 837.263 591.166L837.263 505.462C837.257 503.191 835.415 501.351 833.143 501.348L706.139 501.348C703.867 501.351 702.025 503.191 702.02 505.462Z" fill="#3F3D56" transform="translate(-206.59 -163.871)"/><path d="M704.999 506.529 704.999 590.109C705.001 591.324 705.986 592.308 707.201 592.311L832.086 592.311C833.301 592.309 834.286 591.324 834.288 590.109L834.288 506.529C834.288 505.312 833.303 504.325 832.086 504.323L707.201 504.323C705.984 504.325 705 505.312 704.999 506.529Z" fill="#6C63FF" transform="translate(-206.59 -163.871)"/><path d="M699.364 607.881C699.835 608.472 700.551 608.815 701.307 608.811L837.299 608.811C838.681 608.809 839.8 607.687 839.798 606.305 839.798 606.134 839.78 605.963 839.745 605.795L837.634 595.768C837.456 594.937 836.87 594.253 836.076 593.95 835.793 593.839 835.492 593.782 835.188 593.783L703.41 593.783C703.106 593.782 702.805 593.839 702.522 593.95 701.728 594.253 701.141 594.937 700.964 595.768L698.853 605.795C698.701 606.532 698.888 607.298 699.364 607.881Z" fill="#2F2E41" transform="translate(-206.59 -163.871)"/><rect x="830.034" y="595.588" rx="0.48819" width="4.18849" height="2.51309" fill="#3F3D56" transform="matrix(-1 -1.22465e-16 1.22465e-16 -1 1457.67 1029.82)"/><rect x="821.657" y="595.588" rx="0.48819" width="4.18849" height="2.51309" fill="#3F3D56" transform="matrix(-1 -1.22465e-16 1.22465e-16 -1 1440.91 1029.82)"/><rect x="813.28" y="595.588" rx="0.48819" width="4.18849" height="2.51309" fill="#3F3D56" transform="matrix(-1 -1.22465e-16 1.22465e-16 -1 1424.16 1029.82)"/><rect x="804.903" y="595.588" rx="0.48819" width="4.18849" height="2.51309" fill="#3F3D56" transform="matrix(-1 -1.22465e-16 1.22465e-16 -1 1407.4 1029.82)"/><rect x="796.526" y="595.588" rx="0.48819" width="4.18849" height="2.51309" fill="#3F3D56" transform="matrix(-1 -1.22465e-16 1.22465e-16 -1 1390.65 1029.82)"/><rect x="788.149" y="595.588" rx="0.48819" width="4.18849" height="2.51309" fill="#3F3D56" transform="matrix(-1 -1.22465e-16 1.22465e-16 -1 1373.9 1029.82)"/><rect x="779.772" y="595.588" rx="0.48819" width="4.18849" height="2.51309" fill="#3F3D56" transform="matrix(-1 -1.22465e-16 1.22465e-16 -1 1357.14 1029.82)"/><rect x="771.395" y="595.588" rx="0.48819" width="4.18849" height="2.51309" fill="#3F3D56" transform="matrix(-1 -1.22465e-16 1.22465e-16 -1 1340.39 1029.82)"/><rect x="763.018" y="595.588" rx="0.48819" width="4.18849" height="2.51309" fill="#3F3D56" transform="matrix(-1 -1.22465e-16 1.22465e-16 -1 1323.63 1029.82)"/><rect x="754.641" y="595.588" rx="0.48819" width="4.18849" height="2.51309" fill="#3F3D56" transform="matrix(-1 -1.22465e-16 1.22465e-16 -1 1306.88 1029.82)"/><rect x="746.264" y="595.588" rx="0.48819" width="4.18849" height="2.51309" fill="#3F3D56" transform="matrix(-1 -1.22465e-16 1.22465e-16 -1 1290.13 1029.82)"/><rect x="737.887" y="595.588" rx="0.48819" width="4.18849" height="2.51309" fill="#3F3D56" transform="matrix(-1 -1.22465e-16 1.22465e-16 -1 1273.37 1029.82)"/><rect x="729.51" y="595.588" rx="0.48819" width="4.18849" height="2.51309" fill="#3F3D56" transform="matrix(-1 -1.22465e-16 1.22465e-16 -1 1256.62 1029.82)"/><rect x="721.133" y="595.588" rx="0.48819" width="4.18849" height="2.51309" fill="#3F3D56" transform="matrix(-1 -1.22465e-16 1.22465e-16 -1 1239.86 1029.82)"/><rect x="712.756" y="595.588" rx="0.48819" width="4.18849" height="2.51309" fill="#3F3D56" transform="matrix(-1 -1.22465e-16 1.22465e-16 -1 1223.11 1029.82)"/><rect x="704.379" y="595.588" rx="0.48819" width="4.18849" height="2.51309" fill="#3F3D56" transform="matrix(-1 -1.22465e-16 1.22465e-16 -1 1206.36 1029.82)"/><rect x="830.133" y="599.777" rx="0.48819" width="4.18849" height="2.51309" fill="#3F3D56" transform="matrix(-1 -1.22465e-16 1.22465e-16 -1 1457.86 1038.2)"/><rect x="821.756" y="599.777" rx="0.48819" width="4.18849" height="2.51309" fill="#3F3D56" transform="matrix(-1 -1.22465e-16 1.22465e-16 -1 1441.11 1038.2)"/><rect x="813.379" y="599.777" rx="0.48819" width="4.18849" height="2.51309" fill="#3F3D56" transform="matrix(-1 -1.22465e-16 1.22465e-16 -1 1424.36 1038.2)"/><rect x="805.002" y="599.777" rx="0.48819" width="4.18849" height="2.51309" fill="#3F3D56" transform="matrix(-1 -1.22465e-16 1.22465e-16 -1 1407.6 1038.2)"/><rect x="796.625" y="599.777" rx="0.48819" width="4.18849" height="2.51309" fill="#3F3D56" transform="matrix(-1 -1.22465e-16 1.22465e-16 -1 1390.85 1038.2)"/><rect x="788.248" y="599.777" rx="0.48819" width="4.18849" height="2.51309" fill="#3F3D56" transform="matrix(-1 -1.22465e-16 1.22465e-16 -1 1374.09 1038.2)"/><rect x="779.871" y="599.777" rx="0.48819" width="4.18849" height="2.51309" fill="#3F3D56" transform="matrix(-1 -1.22465e-16 1.22465e-16 -1 1357.34 1038.2)"/><rect x="771.494" y="599.777" rx="0.48819" width="4.18849" height="2.51309" fill="#3F3D56" transform="matrix(-1 -1.22465e-16 1.22465e-16 -1 1340.59 1038.2)"/><rect x="763.117" y="599.777" rx="0.48819" width="4.18849" height="2.51309" fill="#3F3D56" transform="matrix(-1 -1.22465e-16 1.22465e-16 -1 1323.83 1038.2)"/><rect x="754.74" y="599.777" rx="0.48819" width="4.18849" height="2.51309" fill="#3F3D56" transform="matrix(-1 -1.22465e-16 1.22465e-16 -1 1307.08 1038.2)"/><rect x="746.363" y="599.777" rx="0.48819" width="4.18849" height="2.51309" fill="#3F3D56" transform="matrix(-1 -1.22465e-16 1.22465e-16 -1 1290.32 1038.2)"/><rect x="737.986" y="599.777" rx="0.48819" width="4.18849" height="2.51309" fill="#3F3D56" transform="matrix(-1 -1.22465e-16 1.22465e-16 -1 1273.57 1038.2)"/><rect x="729.609" y="599.777" rx="0.48819" width="4.18849" height="2.51309" fill="#3F3D56" transform="matrix(-1 -1.22465e-16 1.22465e-16 -1 1256.82 1038.2)"/><rect x="721.232" y="599.777" rx="0.48819" width="4.18849" height="2.51309" fill="#3F3D56" transform="matrix(-1 -1.22465e-16 1.22465e-16 -1 1240.06 1038.2)"/><rect x="712.855" y="599.777" rx="0.48819" width="4.18849" height="2.51309" fill="#3F3D56" transform="matrix(-1 -1.22465e-16 1.22465e-16 -1 1223.31 1038.2)"/><rect x="704.478" y="599.777" rx="0.48819" width="4.18849" height="2.51309" fill="#3F3D56" transform="matrix(-1 -1.22465e-16 1.22465e-16 -1 1206.55 1038.2)"/><rect x="760.604" y="604.803" rx="0.48819" width="33.5079" height="2.51309" fill="#3F3D56" transform="matrix(-1 -1.22465e-16 1.22465e-16 -1 1348.13 1048.25)"/><rect x="515.631" y="358.737" rx="1.56108" width="5.96585" height="3.12216" fill="#FFFFFF"/><rect x="548.154" y="358.737" rx="1.56108" width="5.96585" height="3.12216" fill="#FFFFFF"/><rect x="557.369" y="358.737" rx="1.56108" width="5.96585" height="3.12216" fill="#FFFFFF"/><rect x="524.477" y="358.477" rx="1.56108" width="20.7961" height="3.12216" fill="#FFFFFF"/><rect x="567.841" y="358.477" rx="1.56108" width="20.7961" height="3.12216" fill="#FFFFFF"/><rect x="524.304" y="365.784" rx="1.56108" width="5.96585" height="3.12216" fill="#FFFFFF"/><rect x="556.827" y="365.784" rx="1.56108" width="5.96585" height="3.12216" fill="#FFFFFF"/><rect x="566.042" y="365.784" rx="1.56108" width="5.96585" height="3.12216" fill="#FFFFFF"/><rect x="533.15" y="365.523" rx="1.56108" width="20.7961" height="3.12216" fill="#FFFFFF"/><rect x="576.514" y="365.523" rx="1.56108" width="20.7961" height="3.12216" fill="#FFFFFF"/><rect x="532.977" y="372.83" rx="1.56108" width="5.96585" height="3.12216" fill="#FFFFFF"/><rect x="565.5" y="372.83" rx="1.56108" width="5.96585" height="3.12216" fill="#FFFFFF"/><rect x="574.715" y="372.83" rx="1.56108" width="5.96585" height="3.12216" fill="#FFFFFF"/><rect x="541.823" y="372.57" rx="1.56108" width="20.7961" height="3.12216" fill="#FFFFFF"/><rect x="585.187" y="372.57" rx="1.56108" width="20.7961" height="3.12216" fill="#FFFFFF"/><rect x="541.649" y="379.877" rx="1.56108" width="5.96585" height="3.12216" fill="#FFFFFF"/><rect x="574.172" y="379.877" rx="1.56108" width="5.96585" height="3.12216" fill="#FFFFFF"/><rect x="583.387" y="379.877" rx="1.56108" width="5.96585" height="3.12216" fill="#FFFFFF"/><rect x="550.496" y="379.617" rx="1.56108" width="20.7961" height="3.12216" fill="#FFFFFF"/><rect x="548.154" y="407.898" rx="1.56108" width="5.96585" height="3.12216" fill="#FFFFFF"/><rect x="557.369" y="407.898" rx="1.56108" width="5.96585" height="3.12216" fill="#FFFFFF"/><rect x="567.841" y="408.158" rx="1.56108" width="20.7961" height="3.12216" fill="#FFFFFF"/><rect x="515.631" y="407.898" rx="1.56108" width="5.96585" height="3.12216" fill="#FFFFFF"/><rect x="524.477" y="408.158" rx="1.56108" width="20.7961" height="3.12216" fill="#FFFFFF"/><rect x="524.304" y="400.851" rx="1.56108" width="5.96585" height="3.12216" fill="#FFFFFF"/><rect x="556.827" y="400.851" rx="1.56108" width="5.96585" height="3.12216" fill="#FFFFFF"/><rect x="566.042" y="400.851" rx="1.56108" width="5.96585" height="3.12216" fill="#FFFFFF"/><rect x="533.15" y="401.111" rx="1.56108" width="20.7961" height="3.12216" fill="#FFFFFF"/><rect x="532.977" y="393.804" rx="1.56108" width="5.96585" height="3.12216" fill="#FFFFFF"/><rect x="565.5" y="393.804" rx="1.56108" width="5.96585" height="3.12216" fill="#FFFFFF"/><rect x="574.715" y="393.804" rx="1.56108" width="5.96585" height="3.12216" fill="#FFFFFF"/><rect x="541.823" y="394.064" rx="1.56108" width="20.7961" height="3.12216" fill="#FFFFFF"/><rect x="541.649" y="386.758" rx="1.56108" width="5.96585" height="3.12216" fill="#FFFFFF"/><rect x="574.172" y="386.758" rx="1.56108" width="5.96585" height="3.12216" fill="#FFFFFF"/><rect x="583.387" y="386.758" rx="1.56108" width="5.96585" height="3.12216" fill="#FFFFFF"/><rect x="550.496" y="387.018" rx="1.56108" width="20.7961" height="3.12216" fill="#FFFFFF"/><path d="M711.507 654.353 698.158 633.251 740.06 599.848 757.355 580.687C764.446 572.832 776.562 572.211 784.418 579.302 786.885 581.529 788.73 584.359 789.773 587.515L789.773 587.515C793.014 597.324 787.896 607.935 778.203 611.506L750.854 621.581Z" fill="#FFB6B6" transform="translate(-206.59 -163.871)"/><path d="M398.28 501.352 398.28 603.912 470.13 603.912 470.13 501.352C470.133 499.838 469.147 498.499 467.7 498.052 467.368 497.942 467.02 497.888 466.67 497.892L401.75 497.892C399.837 497.888 398.284 499.436 398.28 501.348 398.28 501.35 398.28 501.351 398.28 501.352ZM426.32 536.592C426.359 532.356 429.825 528.954 434.061 528.993 438.242 529.032 441.621 532.411 441.66 536.592L441.66 548.492C441.638 552.728 438.187 556.144 433.951 556.123 429.745 556.101 426.341 552.697 426.32 548.492Z" fill="#2F2E41" transform="translate(-206.59 -163.871)"/><path d="M398.06 600.632 398.06 610.522C398.063 611.588 398.924 612.453 399.99 612.462L468.42 612.462C469.488 612.457 470.35 611.59 470.35 610.522L470.35 600.632Z" fill="#3F3D56" transform="translate(-206.59 -163.871)"/><path d="M285.25 346.832 285.25 534.092C285.254 539.061 289.281 543.088 294.25 543.092L571.75 543.092C576.719 543.088 580.746 539.061 580.75 534.092L580.75 346.832C580.738 341.868 576.714 337.848 571.75 337.842L294.25 337.842C289.286 337.848 285.262 341.868 285.25 346.832Z" fill="#3F3D56" transform="translate(-206.59 -163.871)"/><path d="M291.76 349.162 291.76 531.782C291.765 534.437 293.915 536.587 296.57 536.592L569.44 536.592C572.095 536.587 574.245 534.437 574.25 531.782L574.25 349.162C574.25 346.504 572.098 344.348 569.44 344.342L296.57 344.342C293.912 344.348 291.76 346.504 291.76 349.162Z" fill="#FFFFFF" transform="translate(-206.59 -163.871)"/><path d="M342.4 611.792C342.963 612.497 343.818 612.906 344.72 612.902L507.06 612.902C508.71 612.9 510.046 611.561 510.044 609.911 510.043 609.706 510.022 609.502 509.98 609.302L507.46 597.332C507.248 596.34 506.548 595.523 505.6 595.162 505.262 595.029 504.903 594.962 504.54 594.962L347.23 594.962C346.867 594.962 346.508 595.029 346.17 595.162 345.222 595.523 344.522 596.34 344.31 597.332L341.79 609.302C341.608 610.181 341.832 611.096 342.4 611.792Z" fill="#2F2E41" transform="translate(-206.59 -163.871)"/><path d="M560.585 369.499 305.261 369.499C304.7 369.486 304.256 369.022 304.268 368.461 304.28 367.918 304.718 367.48 305.261 367.468L560.585 367.468C561.145 367.48 561.59 367.945 561.577 368.506 561.565 369.049 561.128 369.487 560.585 369.499Z" fill="#3F3D56" transform="translate(-206.59 -163.871)"/><ellipse cx="116.051" cy="192.33" rx="5.95043" ry="6.08304" fill="#3F3D56"/><ellipse cx="136.607" cy="192.33" rx="5.95043" ry="6.08304" fill="#3F3D56"/><ellipse cx="157.163" cy="192.33" rx="5.95043" ry="6.08304" fill="#3F3D56"/><path d="M548.206 351.622 533.606 351.622C532.996 351.636 532.513 352.142 532.527 352.753 532.541 353.343 533.016 353.818 533.606 353.832L548.206 353.832C548.817 353.823 549.304 353.322 549.296 352.711 549.287 352.113 548.805 351.63 548.206 351.622Z" fill="#3F3D56" transform="translate(-206.59 -163.871)"/><path d="M548.206 355.772 533.606 355.772C532.996 355.785 532.512 356.291 532.526 356.901 532.539 357.493 533.015 357.969 533.606 357.982L548.206 357.982C548.817 357.975 549.305 357.474 549.298 356.864 549.291 356.264 548.806 355.779 548.206 355.772Z" fill="#3F3D56" transform="translate(-206.59 -163.871)"/><path d="M548.206 359.922 533.606 359.922C532.996 359.936 532.513 360.442 532.527 361.053 532.541 361.643 533.016 362.118 533.606 362.132L548.206 362.132C548.817 362.123 549.304 361.622 549.296 361.011 549.287 360.413 548.805 359.93 548.206 359.922Z" fill="#3F3D56" transform="translate(-206.59 -163.871)"/><path d="M900.186 604.972C901.09 607.604 903.587 609.353 906.369 609.303L932.861 608.622C935.666 608.567 938.101 606.671 938.841 603.965L942.59 563.877C943.92 564.48 945.368 564.777 946.828 564.748 952.162 564.614 956.378 560.182 956.244 554.847 956.11 549.513 951.678 545.298 946.343 545.432 945.76 545.43 945.178 545.49 944.607 545.612 943.352 544.254 941.582 543.491 939.733 543.509L898.983 544.561C898.645 544.574 898.308 544.616 897.978 544.686 894.522 545.33 892.243 548.654 892.887 552.109 892.94 552.395 893.013 552.676 893.104 552.951ZM943.359 561.156 946.027 551.603C946.33 550.499 946.337 549.335 946.047 548.228 946.177 548.228 946.291 548.167 946.42 548.166 950.236 548.087 953.393 551.117 953.472 554.932 953.551 558.733 950.544 561.884 946.744 561.983 945.561 562.02 944.391 561.734 943.359 561.156Z" fill="#2F2E41" transform="translate(-206.59 -163.871)"/><path d="M897.978 544.686C898.846 549.65 908.607 553.14 920.343 552.534 931.136 552.036 939.961 548.247 941.578 543.755 940.979 543.578 940.357 543.495 939.733 543.509L898.983 544.561C898.645 544.574 898.308 544.616 897.978 544.686Z" fill="#3F3D56" transform="translate(-206.59 -163.871)"/><path d="M922.494 582.944C922.548 582.931 922.599 582.908 922.645 582.878L928.398 579.112C928.629 578.961 928.695 578.652 928.544 578.421 928.506 578.363 928.457 578.314 928.399 578.276L922.419 574.359C922.189 574.207 921.879 574.27 921.727 574.5 921.574 574.73 921.637 575.04 921.867 575.193 921.869 575.193 921.87 575.194 921.871 575.195L927.212 578.693 922.098 582.041C921.867 582.192 921.802 582.502 921.953 582.733 922.07 582.912 922.287 582.997 922.494 582.944Z" fill="#6C63FF" transform="translate(-206.59 -163.871)"/><path d="M913.408 583.363C913.675 583.295 913.837 583.023 913.77 582.756 913.736 582.624 913.651 582.512 913.534 582.445L908.231 579.404 913.356 575.597C913.578 575.433 913.624 575.12 913.459 574.898 913.295 574.677 912.982 574.631 912.76 574.795L907.022 579.058C906.8 579.222 906.753 579.535 906.918 579.757 906.959 579.812 907.011 579.858 907.071 579.893L913.036 583.312C913.149 583.377 913.282 583.395 913.408 583.363Z" fill="#6C63FF" transform="translate(-206.59 -163.871)"/><path d="M921.922 586.244C921.971 586.232 922.017 586.213 922.059 586.186 922.295 586.043 922.37 585.736 922.227 585.5 922.227 585.5 922.227 585.499 922.227 585.499L914.071 572.091C913.927 571.855 913.619 571.781 913.383 571.925 913.148 572.069 913.074 572.376 913.217 572.611L921.372 586.02C921.487 586.207 921.709 586.298 921.922 586.244Z" fill="#6C63FF" transform="translate(-206.59 -163.871)"/><rect x="209.385" y="260.827" rx="3.26417" width="50.7192" height="10.8457" fill="#6C63FF"/><rect x="183.626" y="282.519" rx="3.26417" width="102.236" height="10.8457" fill="#E6E6E6"/><rect x="183.626" y="304.21" rx="3.26417" width="102.236" height="10.8457" fill="#E6E6E6"/><path d="M497.301 540.717 497.518 541.401 497.529 541.424 504.055 561.262 511.561 584.123 525.684 627.085 525.82 633.758 525.82 633.781 526.87 687.465 523.961 694.743 527.235 706.676C527.235 706.676 525.729 688.639 517.653 698.997 513.078 704.883 507.728 710.907 503.336 716.553 509.736 719.143 516.238 721.485 522.843 723.581 524.269 724.037 525.706 724.47 527.144 724.904 527.452 724.995 527.76 725.086 528.068 725.178 549.962 731.652 572.598 735.291 595.419 736.003 596.605 736.038 597.769 736.06 598.898 736.083 599.297 736.095 599.685 736.106 600.073 736.106 601.351 736.118 602.617 736.129 603.894 736.129 606.473 736.129 609.039 736.091 611.595 736.015 630.508 735.482 649.311 732.939 667.686 728.429 667.561 720.843 667.218 711.979 666.728 702.511 666.5 697.868 661.378 692.837 661.07 687.977 660.853 684.327 665.45 680.893 665.211 677.185 663.659 654.359 661.72 663.121 660.283 646.957 660.134 645.371 659.997 643.854 659.872 642.405 658.948 632.024 658.309 625.533 658.309 625.533L664.446 586.85 674.086 526.115 673.344 524.895 672.512 524.484 621.668 499.319 618.907 492.246C617.261 488.077 613.247 485.327 608.766 485.299L575.273 485.162C571.746 485.146 568.429 486.832 566.363 489.691L557.294 502.25Z" fill="#3F3D56" transform="translate(-206.59 -163.871)"/><path d="M533.407 617.525 525.82 633.758 520.641 644.846 511.732 691.492 507.272 696.226 503.45 679.467 463.452 688.348C462.14 681.058 463.101 688.595 462.291 680.598 462.519 680.37 462.759 680.141 462.998 679.913 463.637 679.32 464.173 678.761 464.162 678.225 463.706 650.641 465.075 603.699 476.505 575.259 478.295 570.616 480.656 566.213 483.532 562.152 483.76 561.844 483.977 561.536 484.194 561.228 489.464 553.847 492.795 546.581 497.518 541.413L497.518 541.401C497.547 541.378 497.574 541.351 497.598 541.322 497.615 541.313 497.63 541.301 497.643 541.287L530.087 524.085 531.479 563.19 532.471 591.299Z" fill="#3F3D56" transform="translate(-206.59 -163.871)"/><path d="M650.391 622.135 659.867 642.41 663.175 649.471 672.082 696.113 676.527 700.836 680.358 684.08 682.158 683.711 714.616 676.989 724.077 707.035C728.472 699.711 727.109 690.305 720.815 684.53 720.169 683.945 719.631 683.376 719.646 682.837 720.185 650.394 718.2 591.154 700.279 566.772 694.587 559.034 691.172 551.327 686.203 545.943 686.188 545.927 686.188 545.912 686.173 545.912L674.081 526.114 673.343 524.899 672.512 524.483Z" fill="#3F3D56" transform="translate(-206.59 -163.871)"/><circle cx="386.397" cy="267.201" r="44.5583" id="a657ec4b-47ce-4d2a-9c58-81a811696ca9" fill="#FFB6B6"/><path d="M653.212 399.948C652.514 399.202 651.543 398.773 650.522 398.758L651.192 396.898C651.874 395.073 650.946 393.041 649.121 392.359 648.518 392.134 647.865 392.078 647.232 392.198L644.792 392.668 645.022 391.038C645.303 389.106 643.965 387.313 642.033 387.033 641.447 386.947 640.848 387.011 640.292 387.218 639.233 387.635 638.042 387.55 637.052 386.988 636.059 386.443 635.357 385.488 635.132 384.378L634.282 380.278 634.192 380.058C630.052 373.158 622.092 368.138 612.352 366.298 603.682 364.648 594.792 365.488 586.222 366.278 582.822 366.598 578.982 366.958 575.782 368.918 573.062 370.598 570.762 373.958 571.232 377.348 562.782 374.758 553.722 379.928 549.232 386.448 543.912 394.208 543.042 403.928 542.902 411.528 542.522 429.508 546.232 444.218 553.902 455.258 554.462 456.058 554.602 457.728 555.712 458.288L555.482 457.918C556.722 458.538 557.982 459.538 557.512 460.608 556.162 463.688 565.132 470.498 571.452 472.748 582.982 476.858 598.312 476.508 609.092 475.028L609.472 472.478C613.362 471.948 616.102 470.938 616.872 469.358 618.232 468.198 619.392 467.158 620.402 466.198L620.412 466.188C620.432 466.168 620.472 466.138 620.492 466.118 625.362 461.448 626.492 458.788 627.002 454.738 627.492 450.768 626.622 446.738 625.732 443.108 644.472 446.008 618.352 423.148 635.812 418.728 636.013 418.666 636.216 418.616 636.422 418.578 636.932 418.458 637.442 418.338 637.932 418.198 640.294 417.557 642.556 416.591 644.652 415.328 649.532 412.358 651.142 408.418 653.662 403.978 654.409 402.68 654.226 401.049 653.212 399.948Z" fill="#2F2E41" transform="translate(-206.59 -163.871)"/><path d="M750.582 625.308C750.572 627.058 750.552 629.508 750.472 632.538 750.462 632.958 750.452 633.388 750.442 633.828 750.312 639.398 750.182 644.068 749.972 649.258 749.962 649.618 749.952 649.968 749.932 650.328 749.652 657.568 749.212 665.998 748.452 679.348 747.042 704.008 744.582 682.738 742.112 691.388 741.992 691.818 741.862 692.328 741.742 692.928 741.368 695.105 740.737 697.23 739.862 699.258 738.552 700.038 737.202 700.788 735.872 701.538 732.082 703.648 728.232 705.678 724.352 707.608 722.172 708.688 719.982 709.748 717.782 710.768 717.432 710.928 717.092 711.088 716.752 711.238 705.486 716.449 693.876 720.879 682.002 724.498 679.682 725.198 677.372 725.878 675.032 726.508 672.592 727.188 670.152 727.828 667.682 728.428 649.308 732.939 630.505 735.483 611.592 736.018 609.042 736.098 606.472 736.128 603.892 736.128 602.612 736.128 601.352 736.118 600.072 736.108 599.682 736.108 599.292 736.098 598.902 736.088 597.772 736.058 596.602 736.038 595.422 736.008 572.601 735.296 549.966 731.656 528.072 725.178L527.142 724.908C525.702 724.468 524.272 724.038 522.842 723.578 516.242 721.488 509.739 719.148 503.332 716.558 498.442 714.588 493.609 712.475 488.832 710.218 488.789 710.206 488.748 710.186 488.712 710.158 487.712 709.698 486.702 709.218 485.702 708.728 485.572 708.658 485.432 708.588 485.292 708.518 481.562 706.698 477.872 704.791 474.222 702.798 471.152 695.748 466.832 694.398 464.152 688.198 463.372 686.356 462.809 684.43 462.472 682.458 462.472 682.438 462.462 682.418 462.462 682.388 462.742 686.108 461.272 675.788 462.452 682.348 462.442 682.228 462.432 682.098 462.422 681.948 462.392 681.588 462.352 681.148 462.292 680.598 458.862 647.108 459.082 608.808 457.592 577.248 457.492 575.208 457.389 573.255 457.282 571.388 457.252 570.768 457.212 570.158 457.172 569.558 457.242 569.378 457.322 569.188 457.412 569.008 457.431 568.956 457.455 568.906 457.482 568.858 457.512 568.796 457.545 568.736 457.582 568.678 457.602 568.648 457.632 568.608 457.652 568.578 457.667 568.544 457.684 568.51 457.702 568.478 457.792 568.338 457.892 568.188 458.002 568.048 458.052 567.988 458.092 567.938 458.142 567.888 458.177 567.837 458.217 567.79 458.262 567.748 458.293 567.7 458.33 567.656 458.372 567.618 458.412 567.578 458.452 567.528 458.502 567.478 458.524 567.446 458.551 567.419 458.582 567.398 458.661 567.307 458.748 567.223 458.842 567.148 459.199 566.82 459.58 566.519 459.982 566.248 460.122 566.158 460.272 566.068 460.412 565.968 461.42 565.365 462.481 564.856 463.582 564.448 463.962 564.308 464.342 564.178 464.752 564.038 464.902 563.998 465.042 563.948 465.192 563.898 465.412 563.828 465.632 563.758 465.862 563.708 467.002 563.368 468.232 563.078 469.562 562.808 469.722 562.778 469.892 562.748 470.062 562.708 470.302 562.658 470.552 562.618 470.802 562.578 471.142 562.518 471.492 562.458 471.842 562.398 474.812 561.928 478.182 561.578 481.902 561.348 482.252 561.328 482.602 561.308 482.952 561.288 483.362 561.268 483.772 561.248 484.192 561.228 484.542 561.208 484.902 561.198 485.262 561.188 485.612 561.168 485.972 561.158 486.342 561.148 487.352 561.118 488.392 561.088 489.452 561.068 492.472 561.008 495.652 561.028 498.992 561.098 500.542 561.138 502.122 561.178 503.742 561.248 503.852 561.248 503.952 561.258 504.052 561.258 505.462 561.308 506.882 561.368 508.342 561.448 509.362 561.498 510.392 561.548 511.422 561.608 512.392 561.668 513.372 561.728 514.362 561.798 515.132 561.838 515.902 561.898 516.682 561.948 517.342 561.998 518.002 562.048 518.662 562.088L519.562 562.148C520.052 562.188 520.542 562.218 521.042 562.268 522.142 562.358 523.242 562.448 524.362 562.538 525.472 562.638 526.602 562.738 527.732 562.838 528.862 562.938 530.002 563.048 531.142 563.158 531.262 563.168 531.372 563.178 531.482 563.188 532.522 563.298 533.562 563.398 534.612 563.508 534.852 563.528 535.102 563.548 535.342 563.578 536.343 563.679 537.364 563.796 538.374 563.904 538.684 563.937 538.993 563.969 539.304 564.003 540.095 564.09 540.875 564.164 541.672 564.258 542.722 564.378 543.792 564.488 544.832 564.628 545.642 564.718 546.452 564.808 547.262 564.908 548.532 565.058 549.822 565.218 551.112 565.388 551.602 565.448 552.092 565.508 552.582 565.578 556.262 566.038 559.982 566.548 563.762 567.078 569.492 567.888 575.312 568.768 581.172 569.718 587.042 570.668 592.946 571.671 598.882 572.728 600.382 572.998 601.882 573.268 603.392 573.548 604.072 573.678 604.752 573.808 605.432 573.938 606.592 574.148 607.752 574.368 608.912 574.588 610.072 574.808 611.232 575.028 612.392 575.258 613.772 575.528 615.162 575.798 616.542 576.068 625.632 577.868 634.672 579.788 643.492 581.798 644.942 582.128 646.392 582.468 647.832 582.798 650.712 583.468 653.566 584.148 656.392 584.838 657.172 585.018 657.942 585.208 658.712 585.398 660.632 585.878 662.552 586.358 664.442 586.848L664.772 586.938C666.162 587.278 667.522 587.628 668.882 587.988 672.092 588.828 675.249 589.678 678.352 590.538 680.412 591.108 682.449 591.685 684.462 592.268 687.472 593.138 690.422 594.018 693.292 594.908 694.002 595.128 694.712 595.348 695.412 595.558 697.512 596.208 699.582 596.868 701.592 597.528 703.192 598.048 704.752 598.578 706.292 599.108 707.832 599.638 709.342 600.168 710.822 600.698 711.772 601.038 712.712 601.398 713.652 601.738 715.002 602.238 716.332 602.738 717.632 603.238 718.032 603.388 718.422 603.548 718.812 603.698 719.062 603.808 719.302 603.898 719.542 603.998 720.012 604.188 720.492 604.368 720.952 604.558 721.422 604.738 721.882 604.928 722.342 605.128 722.792 605.308 723.252 605.498 723.692 605.688 724.142 605.868 724.582 606.058 725.022 606.258 725.392 606.408 725.752 606.568 726.102 606.728 726.812 607.038 727.522 607.348 728.212 607.668 728.552 607.828 728.892 607.978 729.232 608.138L730.012 608.498C730.122 608.558 730.232 608.608 730.342 608.658 730.592 608.778 730.852 608.908 731.102 609.028 731.682 609.298 732.252 609.588 732.812 609.858 733.562 610.238 734.292 610.618 734.992 610.988 735.702 611.368 736.392 611.748 737.052 612.118 737.162 612.178 737.262 612.238 737.372 612.298 737.522 612.378 737.672 612.468 737.822 612.548 738.332 612.838 738.822 613.138 739.312 613.428 740.272 614.018 741.182 614.598 742.032 615.178 742.222 615.308 742.402 615.438 742.592 615.558 743.222 616.008 743.822 616.448 744.382 616.898 744.382 616.908 744.382 616.908 744.392 616.908 744.582 617.048 744.762 617.198 744.942 617.338 745.092 617.478 745.252 617.598 745.402 617.738 745.922 618.188 746.402 618.618 746.842 619.058 746.99 619.194 747.13 619.337 747.262 619.488 747.32 619.536 747.374 619.59 747.422 619.648 747.622 619.848 747.802 620.048 747.972 620.248 747.999 620.275 748.022 620.305 748.042 620.338 748.282 620.618 748.502 620.898 748.712 621.178 748.812 621.318 748.922 621.458 749.012 621.598 749.132 621.768 749.252 621.948 749.352 622.118 749.442 622.258 749.522 622.408 749.602 622.548 749.814 622.908 749.995 623.286 750.142 623.678 750.255 623.943 750.345 624.218 750.412 624.498 750.488 624.764 750.545 625.034 750.582 625.308Z" fill="#2F2E41" transform="translate(-206.59 -163.871)"/><path d="M750.582 625.308C750.572 627.058 750.552 629.508 750.472 632.538 750.462 632.958 750.442 633.388 750.432 633.828 750.332 638.078 750.182 643.328 749.972 649.258 749.962 649.618 749.952 649.968 749.932 650.328 749.652 657.568 749.212 665.998 748.452 679.348 747.042 704.008 744.582 682.738 742.112 691.388 735.252 687.168 727.732 682.748 719.692 678.208 718.242 677.388 716.779 676.565 715.302 675.738 699.222 666.768 681.262 657.368 662.512 648.058 661.772 647.688 661.022 647.318 660.282 646.958 617.332 625.728 570.452 605.078 532.472 591.298 525.142 588.638 518.142 586.238 511.562 584.128 497.702 579.698 485.722 576.598 476.502 575.258 466.902 573.858 460.272 574.358 457.592 577.248 457.492 575.208 457.389 573.255 457.282 571.388 457.242 570.768 457.202 570.158 457.162 569.558 457.224 569.393 457.304 569.236 457.382 569.078 457.393 569.055 457.401 569.031 457.412 569.008 457.431 568.956 457.455 568.906 457.482 568.858 457.512 568.796 457.545 568.736 457.582 568.678 457.615 568.607 457.655 568.54 457.702 568.478 457.792 568.338 457.892 568.188 458.002 568.048 458.083 567.943 458.17 567.843 458.262 567.748 458.293 567.7 458.33 567.656 458.372 567.618 458.412 567.578 458.452 567.528 458.502 567.478 458.524 567.446 458.551 567.419 458.582 567.398 458.661 567.307 458.748 567.223 458.842 567.148 459.199 566.82 459.58 566.519 459.982 566.248 460.122 566.158 460.272 566.068 460.412 565.968 461.42 565.365 462.481 564.856 463.582 564.448 463.962 564.308 464.342 564.178 464.752 564.038 464.902 563.998 465.042 563.948 465.192 563.898 465.412 563.828 465.632 563.758 465.862 563.708 467.002 563.368 468.232 563.078 469.562 562.808 469.962 562.728 470.382 562.648 470.802 562.578 471.142 562.518 471.492 562.458 471.842 562.398 474.812 561.928 478.182 561.578 481.902 561.348 482.252 561.328 482.602 561.308 482.952 561.288 483.362 561.268 483.772 561.248 484.192 561.228 484.542 561.208 484.902 561.198 485.262 561.188 485.612 561.168 485.972 561.158 486.342 561.148 487.352 561.118 488.392 561.088 489.452 561.068 492.472 561.018 495.652 561.038 498.992 561.108 500.542 561.138 502.122 561.188 503.742 561.258 503.842 561.258 503.952 561.268 504.052 561.268 505.462 561.308 506.892 561.378 508.342 561.448 509.362 561.498 510.392 561.548 511.422 561.608 512.392 561.668 513.372 561.728 514.362 561.798 515.132 561.838 515.902 561.898 516.682 561.948 517.342 561.998 518.002 562.048 518.662 562.088 519.452 562.148 520.242 562.208 521.042 562.268 522.142 562.358 523.242 562.448 524.362 562.538 525.472 562.638 526.602 562.738 527.732 562.838 528.862 562.938 530.002 563.048 531.142 563.158 531.262 563.168 531.372 563.178 531.482 563.188 532.522 563.298 533.562 563.398 534.612 563.508 540.432 564.098 546.422 564.788 552.582 565.578 556.262 566.048 559.989 566.551 563.762 567.088 569.492 567.898 575.312 568.778 581.172 569.718 587.042 570.668 592.946 571.671 598.882 572.728 600.382 572.998 601.882 573.268 603.392 573.548 605.232 573.888 607.072 574.234 608.912 574.588 610.072 574.808 611.232 575.028 612.392 575.258 613.772 575.528 615.162 575.798 616.542 576.068 625.632 577.868 634.672 579.788 643.492 581.798 644.942 582.128 646.392 582.468 647.832 582.798 650.712 583.468 653.566 584.148 656.392 584.838 657.172 585.028 657.942 585.218 658.712 585.408 660.642 585.888 662.552 586.368 664.442 586.848L664.442 586.858C664.552 586.878 664.662 586.908 664.772 586.938 666.152 587.288 667.522 587.638 668.882 587.998 672.092 588.838 675.249 589.685 678.352 590.538 680.412 591.118 682.452 591.688 684.462 592.268 687.472 593.148 690.422 594.028 693.292 594.908 694.002 595.128 694.712 595.348 695.412 595.558 697.512 596.218 699.572 596.875 701.592 597.528 703.192 598.048 704.752 598.578 706.292 599.108 707.832 599.638 709.342 600.168 710.822 600.698 711.782 601.038 712.722 601.388 713.652 601.728 715.012 602.228 716.332 602.728 717.632 603.238 718.032 603.388 718.422 603.548 718.812 603.698 719.542 603.978 720.252 604.268 720.952 604.558 721.422 604.738 721.882 604.928 722.342 605.128 722.792 605.308 723.252 605.498 723.692 605.688 724.142 605.868 724.582 606.058 725.022 606.258 725.392 606.408 725.752 606.568 726.102 606.728 726.812 607.038 727.522 607.348 728.212 607.668 728.552 607.828 728.892 607.978 729.232 608.138L730.012 608.498C730.122 608.558 730.232 608.608 730.342 608.658 731.192 609.058 732.012 609.458 732.812 609.858 733.562 610.238 734.292 610.618 734.992 610.988 735.822 611.428 736.612 611.858 737.372 612.298 737.522 612.378 737.672 612.468 737.822 612.548 738.332 612.838 738.822 613.138 739.312 613.428 740.272 614.018 741.182 614.598 742.032 615.178 742.872 615.758 743.652 616.328 744.382 616.898 744.382 616.908 744.382 616.908 744.392 616.908 744.742 617.188 745.082 617.468 745.402 617.738 745.922 618.188 746.402 618.618 746.842 619.058 746.99 619.194 747.13 619.337 747.262 619.488 747.32 619.536 747.374 619.59 747.422 619.648 747.632 619.878 747.842 620.108 748.042 620.338 748.282 620.618 748.502 620.898 748.712 621.178 748.812 621.318 748.922 621.458 749.012 621.598 749.132 621.768 749.252 621.948 749.352 622.118 749.442 622.258 749.522 622.408 749.602 622.548 749.815 622.908 749.995 623.286 750.142 623.678 750.252 623.944 750.342 624.218 750.412 624.498 750.488 624.763 750.545 625.034 750.582 625.308Z" opacity="0.2" transform="translate(-206.59 -163.871)"/></svg>